<svg version="1.0" xmlns="http://www.w3.org/2000/svg"
 width="500.000000pt" height="500.000000pt" viewBox="0 0 500.000000 500.000000"
 preserveAspectRatio="xMidYMid meet">

<g transform="translate(0.000000,500.000000) scale(0.100000,-0.100000)"
fill="#000000" stroke="none">
<path d="M3308 3685 c-4 -32 -5 -61 -3 -64 12 -11 16 11 13 65 l-3 59 -7 -60z"/>
<path d="M2330 3701 c-39 -12 -270 -114 -267 -118 2 -1 28 5 58 14 73 24 269
24 319 1 19 -9 67 -50 106 -91 78 -81 132 -113 255 -147 40 -11 103 -20 139
-20 l65 0 -3 -50 c-3 -43 -1 -50 15 -52 10 0 -4 -4 -32 -8 l-50 -7 60 -3 60
-3 -65 -7 -65 -7 90 -2 c50 -1 108 -6 130 -10 22 -4 -146 -9 -385 -10 -234 -2
-436 -4 -450 -5 -19 -2 -25 -8 -25 -27 l0 -24 185 -3 c102 -1 191 -5 198 -7
22 -8 13 -28 -10 -23 -22 4 -23 1 -20 -44 3 -33 8 -48 18 -48 15 0 18 -27 8
-54 -6 -14 -10 -14 -40 5 -29 18 -47 21 -112 18 -65 -3 -83 -8 -109 -29 -21
-17 -32 -34 -32 -52 -1 -27 0 -28 47 -22 26 3 53 8 60 10 7 2 10 -1 7 -6 -3
-6 -19 -10 -34 -10 -41 0 -91 -11 -91 -20 0 -5 26 -6 58 -3 31 2 68 4 82 4 19
-1 22 1 10 9 -8 5 -11 12 -7 16 9 9 38 -16 32 -26 -3 -5 4 -15 15 -23 13 -9
22 -30 26 -58 11 -80 -19 -577 -61 -1009 -38 -390 -45 -447 -60 -496 -7 -24
-10 -46 -6 -49 4 -2 23 4 41 13 61 31 77 115 136 727 9 94 20 172 25 173 5 2
9 14 9 27 0 13 4 26 9 29 4 3 8 -44 7 -104 -1 -94 -3 -110 -17 -110 -13 0 -18
-15 -22 -72 -4 -40 -8 -95 -11 -123 -4 -44 -4 -46 4 -15 6 24 8 -15 5 -117 -3
-149 -2 -158 26 -155 11 2 19 -131 11 -188 l-8 -55 -8 79 c-13 131 -21 123
-17 -16 2 -99 0 -132 -10 -139 -9 -5 -2 -11 22 -17 25 -8 28 -10 12 -11 -13
-1 -23 -7 -23 -15 0 -22 -219 -29 -763 -24 -268 3 -490 1 -493 -4 -3 -4 1 -8
8 -9 15 -1 -30 -17 -52 -18 -13 -1 -13 0 0 10 12 9 11 10 -7 6 -19 -4 -23 -1
-23 19 0 16 6 24 18 25 23 0 -22 19 -63 26 -76 13 -183 80 -210 133 -24 47
-50 255 -90 725 -14 157 -18 302 -8 231 5 -28 5 -28 59 -21 36 4 54 3 54 -4 0
-11 -13 -15 -38 -12 -8 2 -12 -5 -10 -16 2 -13 11 -17 28 -15 32 5 52 22 46
39 -3 7 -1 13 4 13 6 0 10 -7 10 -15 0 -8 6 -15 14 -15 8 0 17 -8 19 -17 4
-14 5 -12 6 5 1 14 -5 22 -16 23 -10 0 -5 5 11 10 34 10 45 4 28 -13 -7 -7
-12 -24 -12 -39 0 -33 -15 -45 -36 -28 -8 6 -17 9 -21 5 -3 -3 -1 -6 6 -6 8 0
10 -8 6 -22 -4 -16 -3 -19 3 -9 7 9 12 10 16 2 5 -8 13 -8 27 0 12 6 23 8 26
5 4 -3 12 -81 19 -173 13 -174 49 -569 60 -660 5 -40 10 -53 23 -52 20 1 53
13 51 19 -1 3 3 16 8 30 8 24 -1 163 -28 425 -25 247 -47 652 -32 609 5 -16
12 -19 27 -13 16 6 16 8 3 8 -12 1 -18 17 -26 74 -9 56 -10 60 -8 20 2 -29 0
-53 -4 -53 -7 0 -20 291 -20 443 0 137 -50 187 -184 187 -74 0 -105 -9 -136
-42 l-22 -23 5 50 c4 40 11 55 36 75 39 33 121 57 236 70 71 7 94 14 107 30 9
11 19 20 22 20 3 0 5 -100 5 -222 -1 -123 1 -230 2 -238 2 -8 6 171 9 398 l5
414 55 20 c70 27 83 26 209 -7 116 -30 236 -32 299 -4 32 13 30 14 -65 14 -77
1 -119 7 -198 30 -127 36 -185 42 -225 21 -30 -14 -60 -13 -60 4 0 5 8 11 18
13 16 4 16 5 -1 6 -10 0 -29 9 -44 18 -32 21 -63 24 -63 6 0 -17 -16 -17 -23
1 -3 8 -1 17 6 20 7 3 2 3 -9 1 -16 -4 -23 0 -27 16 -5 17 -9 20 -19 12 -8 -7
-31 -8 -61 -3 -56 8 -93 6 -169 -9 -29 -6 -64 -13 -78 -15 -37 -7 -37 -7 -15
-16 11 -4 29 -6 40 -4 11 2 27 0 35 -6 13 -8 13 -12 0 -32 -11 -18 -14 -62
-15 -193 -1 -93 -3 -177 -6 -186 -9 -31 -28 -45 -65 -47 -21 -2 -41 -5 -46 -8
-4 -3 -24 3 -44 12 -51 24 -68 68 -55 140 15 79 41 132 110 223 34 44 61 82
61 86 0 3 -10 0 -22 -7 -14 -7 -61 -12 -116 -13 -85 0 -93 -2 -98 -20 -3 -12
-4 -115 -2 -230 l3 -210 48 -71 c40 -59 47 -77 47 -117 0 -95 -55 -160 -116
-137 -15 6 -28 9 -30 7 -5 -4 21 -334 36 -467 16 -138 86 -589 120 -775 16
-88 38 -209 49 -270 11 -60 31 -164 46 -230 14 -66 37 -172 51 -237 38 -182
63 -270 80 -289 15 -17 114 -49 151 -49 17 0 20 5 16 21 -6 20 -3 21 43 15 27
-3 84 -8 127 -12 l78 -6 -3 226 c-2 132 1 226 6 226 5 0 7 3 4 6 -3 3 -48 12
-99 20 -119 19 -169 32 -169 44 0 11 128 7 390 -10 85 -6 219 -14 297 -18 78
-5 145 -11 149 -14 3 -4 3 -11 0 -17 -8 -12 -9 -488 -1 -500 2 -5 -3 -12 -13
-16 -37 -16 36 -23 223 -19 319 5 580 42 668 94 40 24 51 38 15 19 l-23 -12
20 23 20 23 -20 -8 c-48 -18 -104 -33 -155 -39 -54 -6 -54 -6 -33 11 20 17 21
27 23 196 1 125 -2 177 -10 177 -6 0 -8 5 -5 10 3 6 0 10 -7 11 -7 0 -4 4 7 9
l20 9 -20 1 c-30 1 0 16 50 24 74 13 116 29 111 42 -3 7 5 15 17 18 43 11 136
67 166 101 24 28 38 35 66 35 23 0 71 19 140 55 261 135 553 346 800 576 l71
67 -37 -1 c-21 0 -36 -4 -33 -8 2 -4 -3 -10 -12 -13 -12 -5 -15 -2 -10 10 5
12 2 15 -10 10 -12 -5 -14 -1 -9 17 5 19 4 20 -5 5 -11 -18 -40 -25 -40 -10 0
4 5 13 12 20 17 17 1 15 -29 -5 -24 -16 -24 -17 -7 -25 16 -7 15 -8 -4 -4 -15
3 -32 -4 -50 -21 -15 -14 -59 -47 -97 -73 l-70 -48 -2 42 c0 22 4 47 11 55 6
8 -16 -3 -49 -24 -136 -88 -163 -99 -258 -103 -84 -4 -177 11 -177 29 0 4 -14
21 -31 38 l-31 31 16 98 c24 146 74 512 88 642 13 112 14 115 37 112 44 -7 68
8 115 68 70 89 207 224 244 241 17 7 32 16 32 19 0 8 83 13 200 14 95 1 110
-2 156 -26 64 -34 117 -94 146 -167 19 -47 22 -75 22 -176 0 -143 -21 -212
-103 -345 -28 -45 -50 -84 -48 -86 8 -8 132 160 163 222 86 173 63 382 -58
519 -89 101 -228 131 -383 81 -43 -14 -81 -24 -83 -22 -2 3 -5 20 -6 40 -2 25
2 39 13 46 23 13 1 13 -70 -2 -45 -9 -66 -9 -98 1 -50 15 -111 66 -111 93 0
22 2 22 75 -6 51 -19 102 -19 190 0 39 8 97 20 130 26 33 6 64 14 70 19 16 15
-73 10 -210 -12 -153 -26 -195 -22 -234 22 -65 74 -116 119 -146 130 -30 11
-32 15 -44 87 -6 42 -14 78 -16 81 -3 2 -18 -7 -33 -21 -38 -35 -141 -96 -182
-108 -58 -17 -58 -10 0 13 78 31 120 65 120 96 0 14 -4 31 -8 37 -9 13 -342
13 -342 0 0 -5 -6 -4 -12 2 -7 5 -28 13 -45 17 -18 3 -33 10 -33 14 0 13 -83
44 -112 43 -61 -4 -60 -3 -38 -39 11 -19 18 -39 14 -44 -3 -6 6 -22 20 -36 14
-14 26 -30 26 -36 0 -6 3 -8 6 -4 3 3 15 -3 26 -13 11 -10 58 -31 104 -46 70
-22 95 -26 151 -22 40 4 58 3 43 -2 -72 -23 -193 -4 -290 46 -42 21 -190 166
-190 185 0 11 -2 11 -8 2 -6 -10 -17 -9 -50 4 -31 12 -39 19 -30 25 8 6 -8 8
-42 4 -45 -4 -51 -3 -32 6 12 6 22 17 22 25 0 7 9 13 19 13 11 0 23 5 26 10 7
11 -19 12 -55 1z m-983 -167 c-3 -3 -12 -4 -19 -1 -8 3 -5 6 6 6 11 1 17 -2
13 -5z m-88 -20 c8 -8 -95 -2 -119 6 -15 5 2 6 45 3 39 -3 72 -7 74 -9z m-124
-114 c3 -5 -1 -10 -9 -10 -9 0 -16 5 -16 10 0 6 4 10 9 10 6 0 13 -4 16 -10z
m1944 -64 c-2 -2 -17 -6 -34 -10 -22 -5 -26 -4 -15 4 14 9 59 15 49 6z m-1929
-41 c0 -9 -6 -12 -15 -9 -8 4 -15 10 -15 15 0 5 7 9 15 9 8 0 15 -7 15 -15z
m-130 -10 c0 -8 -4 -15 -10 -15 -5 0 -10 7 -10 15 0 8 5 15 10 15 6 0 10 -7
10 -15z m260 -40 c0 -8 -7 -15 -15 -15 -8 0 -15 7 -15 15 0 8 7 15 15 15 8 0
15 -7 15 -15z m40 -61 c0 -8 -5 -12 -10 -9 -6 4 -8 11 -5 16 9 14 15 11 15 -7z
m2012 -61 c6 -7 14 -10 19 -7 5 3 9 -1 10 -8 0 -10 2 -10 6 1 5 11 7 11 14 0
8 -12 11 -11 19 1 15 24 13 -4 -10 -111 -41 -191 -56 -244 -64 -223 -8 19 -8
18 -16 -1 -5 -12 -9 22 -9 90 -1 123 11 321 17 290 2 -11 9 -26 14 -32z m-87
-3 c3 -5 -1 -10 -10 -10 -9 0 -13 5 -10 10 3 6 8 10 10 10 2 0 7 -4 10 -10z
m-492 -17 c-7 -2 -19 -2 -25 0 -7 3 -2 5 12 5 14 0 19 -2 13 -5z m347 -73 c0
-5 -4 -10 -10 -10 -5 0 -10 5 -10 10 0 6 5 10 10 10 6 0 10 -4 10 -10z m-2220
-20 c0 -5 -4 -10 -10 -10 -5 0 -10 5 -10 10 0 6 5 10 10 10 6 0 10 -4 10 -10z
m1950 -75 c0 -8 -7 -15 -15 -15 -8 0 -15 7 -15 15 0 8 7 15 15 15 8 0 15 -7
15 -15z m-140 -50 c0 -8 -2 -15 -4 -15 -2 0 -6 7 -10 15 -3 8 -1 15 4 15 6 0
10 -7 10 -15z m340 -35 c0 -5 -7 -7 -15 -4 -8 4 -15 8 -15 10 0 2 7 4 15 4 8
0 15 -4 15 -10z m-333 -37 c-3 -10 -5 -4 -5 12 0 17 2 24 5 18 2 -7 2 -21 0
-30z m380 -45 c-3 -8 -6 -5 -6 6 -1 11 2 17 5 13 3 -3 4 -12 1 -19z m-1939
-67 c-4 -20 -38 -27 -49 -9 -6 8 -3 17 7 25 20 15 46 5 42 -16z m1582 14 c0
-8 -7 -15 -15 -15 -8 0 -15 7 -15 15 0 8 7 15 15 15 8 0 15 -7 15 -15z m354
-30 c5 -22 4 -26 -4 -15 -5 8 -10 24 -10 34 0 26 6 18 14 -19z m-286 14 c-2
-6 -8 -10 -13 -10 -5 0 -11 4 -13 10 -2 6 4 11 13 11 9 0 15 -5 13 -11z
m-1628 -64 c0 -8 -9 -15 -20 -15 -11 0 -20 7 -20 15 0 8 9 15 20 15 11 0 20
-7 20 -15z m1540 -20 c0 -8 -4 -15 -10 -15 -5 0 -10 7 -10 15 0 8 5 15 10 15
6 0 10 -7 10 -15z m60 -24 c0 -12 -20 -25 -27 -18 -7 7 6 27 18 27 5 0 9 -4 9
-9z m70 -10 c0 -14 -18 -23 -30 -16 -6 4 -8 11 -5 16 8 12 35 12 35 0z m-1700
-11 c18 -11 3 -43 -24 -48 -21 -4 -32 24 -16 43 14 17 20 18 40 5z m1560 -40
c0 -5 -5 -10 -11 -10 -5 0 -7 5 -4 10 3 6 8 10 11 10 2 0 4 -4 4 -10z m-8 -65
c2 -19 0 -35 -4 -35 -4 0 -8 16 -8 35 0 19 2 35 4 35 2 0 6 -16 8 -35z m178
20 c0 -8 -9 -15 -20 -15 -20 0 -26 11 -13 23 12 13 33 7 33 -8z m-60 -80 c0
-8 -4 -15 -9 -15 -13 0 -22 16 -14 24 11 11 23 6 23 -9z m-125 -110 c-4 -53
-11 -95 -17 -95 -6 0 -8 10 -5 23 3 12 9 57 12 100 4 43 10 76 12 73 3 -3 2
-48 -2 -101z m-1728 58 c-3 -10 -5 -4 -5 12 0 17 2 24 5 18 2 -7 2 -21 0 -30z
m211 -85 c-3 -7 -13 -13 -23 -13 -10 0 -20 6 -22 13 -3 7 5 12 22 12 17 0 25
-5 23 -12z m1529 -10 c-3 -8 -6 -5 -6 6 -1 11 2 17 5 13 3 -3 4 -12 1 -19z
m-1498 -110 c0 -28 -2 -30 -9 -13 -12 28 -12 45 0 45 6 0 10 -15 9 -32z m1891
8 c0 -3 -4 -8 -10 -11 -5 -3 -10 -1 -10 4 0 6 5 11 10 11 6 0 10 -2 10 -4z
m752 -483 c-135 -118 -345 -256 -475 -312 -158 -69 -157 -69 -157 -32 0 28 3
31 83 56 112 36 273 121 446 237 80 53 148 97 151 97 3 0 -19 -20 -48 -46z
m-1152 -73 c0 -29 -4 -40 -15 -40 -11 0 -15 11 -15 40 0 29 4 40 15 40 11 0
15 -11 15 -40z m3 -447 c-7 -2 -21 -2 -30 0 -10 3 -4 5 12 5 17 0 24 -2 18 -5z
m30 -40 c-7 -2 -21 -2 -30 0 -10 3 -4 5 12 5 17 0 24 -2 18 -5z m-1626 -79
c23 -6 26 -18 39 -149 6 -69 6 -70 -13 -53 -19 17 -19 17 -16 -15 1 -17 -11
20 -27 83 -16 63 -30 121 -30 128 0 13 13 15 47 6z"/>
<path d="M2390 3682 c-13 -14 -12 -15 2 -10 8 4 22 1 29 -5 9 -9 9 -6 -1 8 -8
11 -14 21 -15 21 0 1 -7 -5 -15 -14z"/>
<path d="M1722 3172 l-273 -2 3 -23 c2 -18 9 -22 38 -20 19 0 144 1 278 2 233
1 242 2 242 20 0 11 -3 21 -7 23 -5 2 -131 2 -281 0z"/>
<path d="M1463 3055 c0 -33 2 -45 4 -27 2 18 2 45 0 60 -2 15 -4 0 -4 -33z"/>
<path d="M1178 3083 c7 -3 16 -2 19 1 4 3 -2 6 -13 5 -11 0 -14 -3 -6 -6z"/>
<path d="M1282 3050 c0 -19 2 -27 5 -17 2 9 2 25 0 35 -3 9 -5 1 -5 -18z"/>
<path d="M1005 3040 c-3 -5 -2 -10 4 -10 5 0 13 5 16 10 3 6 2 10 -4 10 -5 0
-13 -4 -16 -10z"/>
<path d="M950 3006 c-6 -8 -10 -25 -7 -38 4 -21 4 -20 6 4 0 15 9 32 19 37 9
6 12 11 6 11 -6 0 -17 -7 -24 -14z"/>
<path d="M1130 2990 c8 -5 22 -9 30 -9 10 0 8 3 -5 9 -27 12 -43 12 -25 0z"/>
<path d="M1260 2980 c0 -5 5 -10 10 -10 6 0 10 5 10 10 0 6 -4 10 -10 10 -5 0
-10 -4 -10 -10z"/>
<path d="M1185 2970 c4 -6 10 -8 15 -5 5 3 11 1 15 -5 3 -5 12 -10 18 -10 16
1 -23 30 -41 30 -7 0 -10 -5 -7 -10z"/>
<path d="M1647 2934 c-33 -18 -26 -38 10 -29 14 3 50 1 79 -5 62 -13 102 -54
109 -112 7 -54 15 -621 15 -1065 0 -406 0 -411 20 -406 14 4 20 0 20 -12 0
-12 -6 -16 -20 -12 -15 4 -20 0 -20 -14 0 -11 -7 -33 -15 -49 -18 -36 -12 -37
31 -8 19 13 36 36 43 59 8 25 11 275 11 803 0 846 3 804 -63 845 -43 26 -175
29 -220 5z m273 -528 c0 -3 -4 -8 -10 -11 -5 -3 -10 -1 -10 4 0 6 5 11 10 11
6 0 10 -2 10 -4z m-30 -106 c0 -5 -4 -10 -10 -10 -5 0 -10 5 -10 10 0 6 5 10
10 10 6 0 10 -4 10 -10z"/>
<path d="M1265 2909 c-4 -6 -5 -12 -2 -15 2 -3 7 2 10 11 7 17 1 20 -8 4z"/>
<path d="M1272 2820 c0 -19 2 -27 5 -17 2 9 2 25 0 35 -3 9 -5 1 -5 -18z"/>
<path d="M610 2836 c0 -2 7 -7 16 -10 8 -3 12 -2 9 4 -6 10 -25 14 -25 6z"/>
<path d="M1463 2800 c0 -25 2 -35 4 -22 2 12 2 32 0 45 -2 12 -4 2 -4 -23z"/>
<path d="M2460 2820 c-13 -8 -12 -10 3 -10 9 0 17 5 17 10 0 12 -1 12 -20 0z"/>
<path d="M4476 2786 c2 -16 5 -83 5 -150 1 -77 4 -110 9 -91 10 41 11 276 1
250 l-9 -20 -4 20 c-3 11 -4 7 -2 -9z"/>
<path d="M1290 2690 c0 -5 5 -10 10 -10 6 0 10 5 10 10 0 6 -4 10 -10 10 -5 0
-10 -4 -10 -10z"/>
<path d="M1337 2653 c-26 -27 -27 -27 -43 -8 -14 18 -15 18 -10 2 3 -10 6 -21
6 -23 0 -2 6 -4 14 -4 22 0 26 -24 26 -146 0 -80 -3 -114 -12 -114 -6 0 -9 -2
-6 -5 3 -3 11 -3 19 0 12 4 14 32 11 150 l-4 145 35 0 c22 0 37 6 41 15 10 27
-47 18 -77 -12z"/>
<path d="M1282 2580 c0 -14 2 -19 5 -12 2 6 2 18 0 25 -3 6 -5 1 -5 -13z"/>
<path d="M1461 2514 c0 -11 3 -14 6 -6 3 7 2 16 -1 19 -3 4 -6 -2 -5 -13z"/>
<path d="M1300 2433 c0 -5 5 -15 10 -23 8 -12 10 -11 10 8 0 12 -4 22 -10 22
-5 0 -10 -3 -10 -7z"/>
<path d="M1341 2318 c0 -20 -7 -39 -13 -41 -10 -4 -10 -6 0 -6 17 -1 24 21 19
56 -3 24 -4 23 -6 -9z"/>
<path d="M1296 2234 c-6 -24 -2 -44 8 -33 9 11 15 59 7 59 -5 0 -12 -12 -15
-26z"/>
<path d="M1337 2229 c6 -8 13 -30 16 -49 4 -28 4 -26 3 9 -1 30 -6 46 -16 49
-12 4 -13 2 -3 -9z"/>
<path d="M2358 2173 c7 -3 16 -2 19 1 4 3 -2 6 -13 5 -11 0 -14 -3 -6 -6z"/>
<path d="M1802 2154 c-7 -8 -8 -14 -3 -14 10 0 25 19 20 25 -2 1 -10 -3 -17
-11z"/>
<path d="M1065 2120 c3 -5 10 -10 16 -10 5 0 9 5 9 10 0 6 -7 10 -16 10 -8 0
-12 -4 -9 -10z"/>
<path d="M1976 2114 c-17 -12 -17 -14 -4 -14 9 0 20 5 23 11 11 17 2 18 -19 3z"/>
<path d="M1311 2104 c0 -11 3 -14 6 -6 3 7 2 16 -1 19 -3 4 -6 -2 -5 -13z"/>
<path d="M1352 2095 c0 -16 2 -22 5 -12 2 9 2 23 0 30 -3 6 -5 -1 -5 -18z"/>
<path d="M2390 2081 c0 -6 4 -13 10 -16 6 -3 7 1 4 9 -7 18 -14 21 -14 7z"/>
<path d="M1091 2061 c-7 -13 -17 -17 -31 -14 -29 8 -25 -15 5 -29 29 -13 55 3
55 33 0 26 -17 33 -29 10z"/>
<path d="M1740 2040 c-8 -5 -10 -10 -5 -10 6 0 17 5 25 10 8 5 11 10 5 10 -5
0 -17 -5 -25 -10z"/>
<path d="M2235 1990 c-3 -6 1 -7 9 -4 18 7 21 14 7 14 -6 0 -13 -4 -16 -10z"/>
<path d="M4004 1978 l-19 -23 23 19 c12 11 22 21 22 23 0 8 -8 2 -26 -19z"/>
<path d="M1321 1944 c0 -11 3 -14 6 -6 3 7 2 16 -1 19 -3 4 -6 -2 -5 -13z"/>
<path d="M1365 1931 c-3 -5 -1 -12 5 -16 5 -3 10 1 10 9 0 18 -6 21 -15 7z"/>
<path d="M1150 1915 c-23 -12 -23 -14 -7 -21 20 -7 42 8 36 24 -3 7 -13 6 -29
-3z"/>
<path d="M1543 1919 c-26 -9 -31 -28 -8 -25 17 2 41 23 34 30 -2 2 -14 0 -26
-5z"/>
<path d="M4086 1913 c-6 -14 -5 -15 5 -6 7 7 10 15 7 18 -3 3 -9 -2 -12 -12z"/>
<path d="M1323 1870 c0 -25 2 -35 4 -22 2 12 2 32 0 45 -2 12 -4 2 -4 -23z"/>
<path d="M1485 1829 c-4 -6 -14 -8 -24 -4 -15 6 -15 5 0 -10 17 -18 49 -11 49
11 0 17 -16 19 -25 3z"/>
<path d="M1341 1814 c0 -11 3 -14 6 -6 3 7 2 16 -1 19 -3 4 -6 -2 -5 -13z"/>
<path d="M1130 1725 c-10 -12 -10 -15 3 -15 19 0 31 16 18 24 -5 3 -14 -1 -21
-9z"/>
<path d="M2450 1680 c0 -5 7 -10 16 -10 8 0 12 5 9 10 -3 6 -10 10 -16 10 -5
0 -9 -4 -9 -10z"/>
<path d="M1378 1669 c-10 -5 -18 -20 -18 -32 0 -21 1 -21 13 3 9 17 21 25 39
25 15 -1 24 3 22 7 -7 11 -35 9 -56 -3z"/>
<path d="M2386 1672 c-3 -6 -1 -14 5 -17 15 -10 25 3 12 16 -7 7 -13 7 -17 1z"/>
<path d="M1673 1663 c-18 -7 -16 -23 2 -23 8 0 15 7 15 15 0 8 -1 15 -2 14 -2
0 -9 -3 -15 -6z"/>
<path d="M1728 1628 c9 -9 15 -9 24 0 9 9 7 12 -12 12 -19 0 -21 -3 -12 -12z"/>
<path d="M2611 1574 c0 -11 3 -14 6 -6 3 7 2 16 -1 19 -3 4 -6 -2 -5 -13z"/>
<path d="M2410 1551 c0 -6 5 -13 10 -16 6 -3 10 1 10 9 0 9 -4 16 -10 16 -5 0
-10 -4 -10 -9z"/>
<path d="M1700 1520 c0 -5 5 -10 10 -10 6 0 10 5 10 10 0 6 -4 10 -10 10 -5 0
-10 -4 -10 -10z"/>
<path d="M1530 1410 c-12 -8 -9 -10 13 -10 15 0 27 5 27 10 0 13 -20 13 -40 0z"/>
<path d="M2360 1370 c0 -5 5 -10 10 -10 6 0 10 5 10 10 0 6 -4 10 -10 10 -5 0
-10 -4 -10 -10z"/>
<path d="M1745 1340 c4 -6 11 -8 16 -5 14 9 11 15 -7 15 -8 0 -12 -5 -9 -10z"/>
<path d="M1225 1200 c-3 -5 -1 -10 4 -10 6 0 11 5 11 10 0 6 -2 10 -4 10 -3 0
-8 -4 -11 -10z"/>
<path d="M1180 1196 c0 -2 7 -7 16 -10 8 -3 12 -2 9 4 -6 10 -25 14 -25 6z"/>
</g>
</svg>
